<svg width="23" height="25" viewBox="0 0 23 25" fill="none" xmlns="http://www.w3.org/2000/svg">
<g clip-path="url(#clip0)">
<path fill-rule="evenodd" clip-rule="evenodd" d="M11.1289 2.26837C9.43352 2.26837 8.05941 3.63941 8.05941 5.33786H14.1984C14.1984 3.63941 12.8243 2.26837 11.1289 2.26837ZM14.1984 7.38418V8.40734C14.1984 8.97008 14.6568 9.43051 15.2216 9.43051C15.7864 9.43051 16.2447 8.97008 16.2447 8.40734V7.38418H17.495C18.0138 7.38418 18.4496 7.77298 18.511 8.28456L20.0755 21.5857C20.1471 22.1996 19.6723 22.7316 19.0595 22.7316H3.19839C2.58552 22.7316 2.11077 22.1996 2.18239 21.5857L3.74681 8.28456C3.8082 7.77298 4.24406 7.38418 4.76281 7.38418H6.01311V8.40734C6.01311 8.97008 6.47149 9.43051 7.03627 9.43051C7.60106 9.43051 8.05944 8.97008 8.05944 8.40734V7.38418H14.1984ZM6.0131 5.33786H4.76279C3.20656 5.33786 1.89691 6.50426 1.71479 8.04924L0.150376 21.3503C-0.0644883 23.1716 1.36078 24.7779 3.19838 24.7779H19.0594C20.897 24.7779 22.3223 23.1716 22.1074 21.3503L20.543 8.04924C20.3609 6.50426 19.0513 5.33786 17.495 5.33786H16.2447C16.2447 2.51393 13.9539 0.222046 11.1289 0.222046C8.30293 0.222046 6.0131 2.51393 6.0131 5.33786Z" fill="#2D3092"/>
</g>
<defs>
<clipPath id="clip0">
<rect width="22" height="24.5559" fill="white" transform="translate(0.128906 0.222046)"/>
</clipPath>
</defs>
</svg>
