<svg width="302" height="70" viewBox="0 0 302 70" fill="none" xmlns="http://www.w3.org/2000/svg">
<path fill-rule="evenodd" clip-rule="evenodd" d="M39.8982 60.0944V69.9998H29.9583V60.0944H12.8765V9.94069H29.9583V0.0352783H39.8982V9.94069H56.98V60.0944H39.8982Z" fill="white"/>
<path fill-rule="evenodd" clip-rule="evenodd" d="M30.028 69.9994H17.9507H16.1261C7.2637 69.9994 0 62.7227 0 53.8444V16.1899C0 7.31158 7.2637 0.0348509 16.1261 0.0348509H17.9507H30.028V10.9848H17.273C16.5084 10.9848 15.9002 11.6114 15.9002 12.36V19.4105C15.9002 20.1764 16.5084 20.7857 17.273 20.7857H40.1589L15.3789 50.8501C15.1704 51.1112 15.0661 51.4072 15.0487 51.7205V57.622C15.0487 58.3879 15.6569 58.9973 16.4215 58.9973H30.0106V69.9994H30.028ZM39.8287 0.0348509V10.9848H53.4178C54.1824 10.9848 54.7906 11.6114 54.7906 12.36V18.2615C54.7906 18.5748 54.6863 18.8708 54.4604 19.1319L29.6804 49.1963H53.4004C54.165 49.1963 54.7732 49.823 54.7732 50.5716V57.622C54.7732 58.3879 54.165 58.9973 53.4004 58.9973H39.8113V69.9646H51.0197H53.6958C62.5582 69.9646 69.8219 62.6878 69.8219 53.8095V16.155C69.8219 7.27673 62.5582 0 53.6958 0H51.0197H39.8287V0.0348509Z" fill="#303493"/>
<path fill-rule="evenodd" clip-rule="evenodd" d="M93.907 58.8926H133.823V49.6313H107.461L133.823 18.9054V10.8801H94.7237V20.1414H120.268L93.907 50.8673V58.8926ZM164.702 59.7108C179.49 59.7108 190.247 48.5346 190.247 34.8864C190.247 21.0989 179.629 10.0619 164.841 10.0619C150.053 10.0619 139.296 21.2381 139.296 34.8864C139.296 48.6738 149.914 59.7108 164.702 59.7108ZM164.841 49.9795C156.344 49.9795 150.331 43.1205 150.331 34.8864C150.331 26.5129 156.222 19.7933 164.702 19.7933C173.2 19.7933 179.212 26.6522 179.212 34.8864C179.229 43.2598 173.339 49.9795 164.841 49.9795ZM222.916 59.7108C237.704 59.7108 248.461 48.5346 248.461 34.8864C248.461 21.0989 237.843 10.0619 223.055 10.0619C208.267 10.0619 197.51 21.2381 197.51 34.8864C197.51 48.6738 208.128 59.7108 222.916 59.7108ZM223.055 49.9795C214.558 49.9795 208.545 43.1205 208.545 34.8864C208.545 26.5129 214.436 19.7933 222.916 19.7933C231.413 19.7933 237.426 26.6522 237.426 34.8864C237.426 43.2598 231.535 49.9795 223.055 49.9795ZM257.827 58.8926H276.525C291.591 58.8926 302 48.3953 302 34.8864C302 21.2381 291.591 10.8801 276.525 10.8801H257.827V58.8926ZM268.375 49.3528V20.4025H276.525C285.161 20.4025 290.965 26.3736 290.965 34.8689C290.965 43.5035 285.144 49.3354 276.525 49.3354H268.375V49.3528Z" fill="#303493"/>
</svg>
